# xmcd CD database file
#
# Track frame offsets:
#	150
#	12340
#	27789
#	39277
#	51658
#	66339
#	80202
#	96185
#	109186
#	123571
#	135381
#	150856
#	162554
#	176173
#	188765
#	200223
#	214787
#	226988
#	238017
#	249631
#	264807
#	273654
#	286175
#	299966
#
# Disc length: 4169 seconds
#
# Revision: 0
# Processed by: cddbd v1.5.2PL0 Copyright (c) Steve Scherf et al.
# Submitted via: CDex 1.51
#
DISCID=6d104718
DTITLE=Sarah Vaughan - Shulie a bop
DYEAR=1900
DGENRE=Blues
TTITLE0=Shulie a bop
TTITLE1=Lover man
TTITLE2=Interlude (a night in Tunisia)
TTITLE3=Mean to me
TTITLE4=It might as well be spring
TTITLE5=Ain't misbehavin'
TTITLE6=Goodnight, my love
TTITLE7=Can't get out of this mood
TTITLE8=East of the sun
TTITLE9=Nice work if you can get it
TTITLE10=Come rain or come shine
TTITLE11=Polka dots and moonbeams
TTITLE12=You hit the spot
TTITLE13=Prelude to a kiss
TTITLE14=If i knew then
TTITLE15=Body and soul
TTITLE16=They can't take that away from me
TTITLE17=I cried for you
TTITLE18=Perdido
TTITLE19=The nearness of you
TTITLE20=Ooh what-cha doin' to me
TTITLE21=It's easy to remember
TTITLE22=My funny valentine
TTITLE23=My one and only love
EXTD=
EXTT0=
EXTT1=
EXTT2=
EXTT3=
EXTT4=
EXTT5=
EXTT6=
EXTT7=
EXTT8=
EXTT9=
EXTT10=
EXTT11=
EXTT12=
EXTT13=
EXTT14=
EXTT15=
EXTT16=
EXTT17=
EXTT18=
EXTT19=
EXTT20=
EXTT21=
EXTT22=
EXTT23=
PLAYORDER=
